<?xml version="1.0" encoding="UTF-8" standalone="no"?>
<!-- Created with Inkscape (http://www.inkscape.org/) -->

<svg
   xmlns:dc="http://purl.org/dc/elements/1.1/"
   xmlns:cc="http://creativecommons.org/ns#"
   xmlns:rdf="http://www.w3.org/1999/02/22-rdf-syntax-ns#"
   xmlns:svg="http://www.w3.org/2000/svg"
   xmlns="http://www.w3.org/2000/svg"
   xmlns:sodipodi="http://sodipodi.sourceforge.net/DTD/sodipodi-0.dtd"
   xmlns:inkscape="http://www.inkscape.org/namespaces/inkscape"
   width="460"
   height="630"
   viewBox="0 0 121.70846 166.6874"
   version="1.1"
   id="svg8"
   inkscape:version="0.92.5 (2060ec1f9f, 2020-04-08)"
   sodipodi:docname="drawing.svg">
  <defs
     id="defs2" />
  <sodipodi:namedview
     id="base"
     pagecolor="#ffffff"
     bordercolor="#666666"
     borderopacity="1.0"
     inkscape:pageopacity="0.0"
     inkscape:pageshadow="2"
     inkscape:zoom="0.836"
     inkscape:cx="450.72431"
     inkscape:cy="324.51847"
     inkscape:document-units="mm"
     inkscape:current-layer="layer1"
     showgrid="false"
     units="px"
     inkscape:window-width="1920"
     inkscape:window-height="1024"
     inkscape:window-x="0"
     inkscape:window-y="424"
     inkscape:window-maximized="1" />
  <metadata
     id="metadata5">
    <rdf:RDF>
      <cc:Work
         rdf:about="">
        <dc:format>image/svg+xml</dc:format>
        <dc:type
           rdf:resource="http://purl.org/dc/dcmitype/StillImage" />
        <dc:title></dc:title>
      </cc:Work>
    </rdf:RDF>
  </metadata>
  <g
     inkscape:label="Layer 1"
     inkscape:groupmode="layer"
     id="layer1"
     transform="translate(0,-130.31259)">
    <path
       style="fill:#0044aa;stroke-width:0.26458332"
       d="m 21.41581,130.50168 26.85366,37.09179 c 1.99126,-0.0781 3.61126,-0.1173 4.86069,-0.1173 h 1.64021 c 0.58567,0.039 1.19068,0.0783 1.81539,0.1173 V 144.5184 c 0,-4.99769 -0.54646,-8.10172 -1.6397,-9.3121 -1.48369,-1.71795 -3.70922,-2.5771 -6.67659,-2.5771 h -3.1042 v -2.12752 z m 57.77684,0 v 2.12752 h -2.9869 c -3.35782,0 -5.75905,1.09341 -7.2037,3.2799 -0.81993,1.21038 -1.2299,4.08014 -1.2299,8.6093 v 51.30436 c 0,4.99767 0.54646,8.10172 1.6397,9.31209 1.52274,1.71795 3.78749,2.57658 6.7939,2.57658 h 2.9869 v 2.16731 H 50.26056 c -8.4336,0 -14.64165,-0.62488 -18.62418,-1.8743 -4.02157,-1.21037 -7.41845,-3.47512 -10.19059,-6.7939 -2.8112,-3.27973 -4.2168,-7.20369 -4.2168,-11.77189 0,-4.88055 1.60065,-9.1167 4.80229,-12.70878 3.1626,-3.5921 8.0822,-6.1298 14.75879,-7.61349 L 20.39159,146.33379 C 16.64333,141.10184 13.42216,137.62706 10.7281,135.9091 8.03469,134.19156 4.52168,133.09843 0.1892,132.62971 V 296.8109 h 42.32662 v -2.12752 h 2.9869 c 3.35781,0 5.75905,-1.09341 7.20369,-3.2799 0.81993,-1.21038 1.2299,-4.08014 1.2299,-8.60929 v -51.30436 c 0,-4.99769 -0.54645,-8.10172 -1.6397,-9.3121 -1.52273,-1.71795 -3.78748,-2.57658 -6.79389,-2.57658 h -2.9869 v -2.16731 H 71.4479 c 8.43359,0 14.64165,0.62488 18.62419,1.8743 4.02157,1.21038 7.41843,3.47513 10.19059,6.7939 2.8112,3.27973 4.21679,7.2037 4.21679,11.77189 0,4.88055 -1.60064,9.1167 -4.80229,12.70879 -3.16259,3.59208 -8.08219,6.1298 -14.75878,7.61349 l 16.39848,22.78259 c 3.74826,5.23195 6.96943,8.70673 9.66349,10.42468 2.69341,1.71754 6.20641,2.81067 10.53889,3.27939 V 130.50168 Z m -25.8868,40.7231 c -7.57461,0 -13.27493,1.63986 -17.10128,4.91959 -3.8654,3.27973 -5.79809,7.45731 -5.79809,12.53309 0,4.95864 1.56195,8.98038 4.6855,12.06489 3.08451,3.12355 7.18418,4.68499 12.29899,4.68499 2.26458,0 5.3294,-0.37076 9.19479,-1.1126 v -33.03157 c -0.74184,0 -1.38607,-0.0193 -1.9327,-0.0584 z m 21.01164,50.66046 c -2.26457,0 -5.32939,0.37075 -9.19479,1.1126 v 33.03157 c 0.74185,0 1.38608,0.0194 1.9327,0.0584 h 1.34721 c 7.57461,0 13.27493,-1.63987 17.10128,-4.9196 3.8654,-3.27973 5.79809,-7.45731 5.79809,-12.53308 0,-4.95865 -1.56194,-8.98039 -4.6855,-12.0649 -3.08451,-3.12355 -7.18417,-4.68499 -12.29899,-4.68499 z m -9.19479,37.83387 v 23.07508 c 0,4.99768 0.54645,8.10171 1.6397,9.31209 1.48369,1.71795 3.70922,2.5771 6.67659,2.5771 h 3.10421 v 2.12752 h 23.74945 L 73.43899,259.71911 c -1.99126,0.0781 -3.61126,0.11731 -4.86068,0.11731 H 66.9381 c -0.58567,-0.0391 -1.19069,-0.0783 -1.8154,-0.11731 z"
       id="rect20"
       inkscape:connector-curvature="0" />
  </g>
</svg>
